<?xml version="1.0" encoding="UTF-8" standalone="no"?>
<svg
   xmlns:dc="http://purl.org/dc/elements/1.1/"
   xmlns:cc="http://creativecommons.org/ns#"
   xmlns:rdf="http://www.w3.org/1999/02/22-rdf-syntax-ns#"
   xmlns:svg="http://www.w3.org/2000/svg"
   xmlns="http://www.w3.org/2000/svg"
   id="svg1394"
   version="1.1"
   viewBox="0 0 317.5 238.125"
   height="900"
   width="1200">
  <defs
     id="defs1388" />
  <metadata
     id="metadata1391">
    <rdf:RDF>
      <cc:Work
         rdf:about="">
        <dc:format>image/svg+xml</dc:format>
        <dc:type
           rdf:resource="http://purl.org/dc/dcmitype/StillImage" />
        <dc:title></dc:title>
      </cc:Work>
    </rdf:RDF>
  </metadata>
  <g
     transform="translate(321.27976,-29.104167)"
     id="layer1">
    <path
       id="rect132-1"
       style="fill:#59359a;fill-opacity:1;stroke-width:1.07485;stroke-linejoin:round;paint-order:stroke markers fill;stop-color:#000000"
       d="M -321.27976,29.104167 V 267.22917 H -3.7797619 V 29.104167 Z m 155.16727,68.94722 h 5.3e-4 c 0.24961,-0.01109 0.49925,0.0707 0.69297,0.249582 0.28335,0.253518 0.29819,0.47715 0.29819,3.429771 v 3.17656 l 0.76015,0.23873 c 2.13246,0.70088 3.63892,2.4605 4.02664,4.68241 0.31313,1.7149 -0.2835,3.54886 -1.59578,4.9506 l -0.65577,0.70125 v 6.68435 c -0.002,3e-5 -0.003,5.3e-4 -0.005,5.3e-4 -0.0895,10e-4 -0.17714,0.004 -0.26305,0.0104 -0.0126,0.001 -0.0252,0.002 -0.0377,0.003 -0.0838,0.006 -0.16634,0.0152 -0.24754,0.0269 -0.005,10e-4 -0.009,10e-4 -0.0139,0.002 -0.1778,0.0262 -0.35055,0.0668 -0.52195,0.12143 -0.004,10e-4 -0.009,0.003 -0.0129,0.004 -0.0849,0.0274 -0.16936,0.0583 -0.25424,0.0935 -0.17325,0.0718 -0.34784,0.16036 -0.5271,0.26768 l -0.008,0.005 c -0.0876,0.0527 -0.17667,0.10965 -0.26719,0.17156 -10e-4,0.001 -0.002,0.002 -0.003,0.002 v -6.33293 l -1.38647,-0.03 -1.37202,-0.015 v 2.11771 c 0,2.10263 1.5e-4,2.11764 -0.38757,2.41587 -0.5219,0.40266 -0.88021,0.38744 -1.32756,-0.06 -0.3728,-0.35788 -0.3726,-0.40264 -0.3726,-2.92279 v -2.54972 l -0.80563,-0.88005 c -1.10348,-1.19298 -1.47597,-2.192 -1.49086,-3.93672 -0.0149,-1.14826 0.0446,-1.46141 0.38758,-2.19211 0.22369,-0.47721 0.58143,-1.10367 0.8051,-1.38701 0.55176,-0.7307 1.7599,-1.5807 2.65465,-1.87893 l 0.76068,-0.26822 0.0744,-3.13157 c 0.0746,-2.967544 0.0899,-3.161515 0.40308,-3.459746 0.19372,-0.19373 0.44286,-0.298238 0.69246,-0.309538 z m -0.28265,8.964293 c -0.43479,0.009 -0.84511,0.0811 -1.17049,0.21807 -0.70088,0.28335 -1.55109,1.08871 -1.92389,1.78957 -0.4771,0.90966 -0.4621,2.46046 0.0449,3.42976 0.41754,0.82019 1.1783,1.50638 2.0283,1.81954 0.74562,0.26842 2.20657,0.19355 2.93729,-0.16433 2.78858,-1.3272 2.84832,-5.29381 0.11936,-6.66575 -0.52007,-0.26842 -1.20026,-0.41434 -1.84743,-0.42686 -0.0629,-0.001 -0.12599,-0.001 -0.18809,0 z m 20.75273,8.36073 0.002,5.3e-4 c 0.29564,-0.005 0.58623,0.12703 0.78753,0.38705 0.31316,0.38773 0.31316,0.55206 0.31316,7.15823 v 6.75463 c -0.007,0.70033 -0.0125,1.27431 -0.03,1.73477 0.0274,0.007 0.0543,0.0137 0.0817,0.0207 1.75729,0.42394 3.59,0.75941 5.51543,0.9829 1.10352,0.1193 2.29666,0.22376 2.63964,0.22376 1.56578,0 3.22114,1.16287 3.7729,2.65409 0.28335,0.73072 0.29816,1.16319 0.29816,6.68073 0,5.89036 -2.7e-4,5.89081 -0.37309,6.24871 -0.46228,0.47721 -0.87976,0.47721 -1.34204,0 -0.3728,-0.3579 -0.37259,-0.35827 -0.37259,-6.12933 0,-4.95086 -0.0299,-5.83068 -0.23873,-6.24819 -0.38772,-0.83511 -0.79007,-0.98399 -3.17606,-1.20769 -2.37418,-0.21963 -4.64748,-0.58738 -6.8063,-1.08934 -0.002,-10e-4 -0.005,-0.002 -0.007,-0.002 l -0.007,0.14264 c -0.0596,1.37522 -0.25393,2.61424 -0.59582,3.75171 0.001,5.3e-4 0.003,7.9e-4 0.004,10e-4 1.60398,0.3582 3.21294,0.68152 4.13155,0.7896 1.61052,0.19386 2.56455,1.0737 2.74349,2.50529 0.0597,0.43243 0.0747,7.21738 0.03,15.09106 -0.0448,14.07718 -0.0594,14.34568 -0.37259,15.76234 -0.5965,2.60967 -1.56602,4.92122 -2.96778,7.02387 -0.93948,1.41666 -3.19132,3.72779 -4.60798,4.74183 -1.2079,0.86493 -13.36104,7.93346 -14.73295,8.57467 -1.01405,0.47721 -2.14755,0.47721 -3.16156,0 -1.35702,-0.62632 -13.52558,-7.70974 -14.73348,-8.57467 -1.41666,-1.01404 -3.66853,-3.32517 -4.60799,-4.74183 -1.40176,-2.11754 -2.38612,-4.44405 -2.9528,-7.02387 -0.31316,-1.37192 -0.32795,-1.90852 -0.38756,-10.16992 -0.0597,-9.46931 -0.0745,-9.32029 0.74567,-9.61853 0.31316,-0.10441 0.52189,-0.0895 0.82013,0.0894 0.40262,0.22368 0.40296,0.22358 0.49247,9.15604 0.0895,8.2763 0.11922,9.05208 0.40256,10.28981 0.95438,4.24997 3.44454,8.08228 6.74016,10.39368 0.82018,0.56665 12.67563,7.48593 14.12213,8.23153 0.6114,0.29826 1.26754,0.29826 1.87894,0 1.37195,-0.70088 13.28656,-7.64995 14.12164,-8.23153 3.2807,-2.3114 5.75601,-6.11389 6.75513,-10.39368 0.29826,-1.29739 0.29852,-1.77472 0.35814,-15.88173 0.0447,-11.81052 0.0296,-14.58465 -0.13439,-14.7934 -0.13419,-0.17897 -0.74559,-0.34264 -2.08772,-0.5514 -1.16192,-0.18618 -2.29058,-0.42256 -3.40444,-0.68212 -0.49634,-0.11567 -0.99018,-0.2346 -1.47897,-0.36227 0.12282,0.0328 0.24405,0.0673 0.36742,0.0992 0.0452,0.0118 0.0911,0.0236 0.13642,0.0351 0.31652,0.0808 0.63408,0.15888 0.95446,0.2336 0.007,0.002 0.0131,0.003 0.0202,0.005 -0.60388,1.16438 -1.41123,2.22388 -2.44533,3.2272 -1.75966,1.7149 -4.50323,3.07203 -6.72518,3.35534 l -0.86505,0.10438 v 0.7457 c 0,0.58158 -0.0749,0.805 -0.37312,1.08831 -0.19386,0.20878 -0.49181,0.37259 -0.67074,0.37259 -0.16405,0 -0.47742,-0.16381 -0.67128,-0.37259 l -0.37258,-0.35761 v -4.86172 -4.86119 l 0.37258,-0.35814 c 0.19386,-0.20875 0.50723,-0.37258 0.67128,-0.37258 v -5.3e-4 c 0.53684,0 1.04386,0.65606 1.04386,1.34205 0,0.7456 0.17872,0.76081 1.41644,0.16431 0.67088,-0.31679 1.28342,-0.79658 1.78697,-1.38491 l -0.009,-0.003 c -3.2484,-1.33548 -6.28349,-3.05157 -9.13951,-5.16353 -0.56665,-0.40261 -0.56705,-0.40261 -1.11879,0 -5.68161,4.19037 -12.04912,6.82972 -19.40089,8.0078 -1.31228,0.20873 -1.95344,0.37285 -2.07274,0.5369 -0.14907,0.17896 -0.19378,1.193 -0.19378,3.75793 0,1.9386 -0.0597,3.59399 -0.11938,3.68347 -0.19384,0.31316 -0.77544,0.50705 -1.14824,0.41757 -0.73068,-0.17894 -0.8201,-0.62664 -0.8201,-4.3398 0,-3.59387 0.0892,-4.25017 0.67074,-4.93612 0.50702,-0.61143 1.23804,-0.86479 3.5047,-1.22267 6.12896,-0.98422 11.84018,-3.16098 16.44808,-6.27766 2.47918,-1.6832 3.06332,-2.03084 3.64009,-2.03139 0.0824,-1.1e-4 0.1646,0.007 0.2522,0.0181 0.59648,0.0746 0.77544,0.17881 3.54912,2.05775 2.09526,1.42033 4.48868,2.65006 7.00836,3.66127 0.12171,-0.40999 0.16037,-0.8805 0.18966,-1.896 l 0.0594,-1.75958 c 0.0242,-0.17132 0.0109,-0.34042 -0.0253,-0.50541 0.67477,0.29244 1.36795,0.56782 2.07844,0.82632 -0.0108,2.79294 -0.0653,3.21834 -0.35296,4.01886 -0.004,0.0109 -0.008,0.0217 -0.0124,0.0326 0.002,0 0.004,0.002 0.006,0.002 -0.1062,0.2998 -0.23339,0.60069 -0.38034,0.89504 -0.15171,0.30384 -0.3225,0.60084 -0.508,0.88418 -0.0237,0.0362 -0.0518,0.0665 -0.076,0.10232 -0.37589,-0.13269 -0.74959,-0.26858 -1.12085,-0.40929 0.0325,0.0125 0.064,0.0258 0.0966,0.0383 0.33515,0.12779 0.67265,0.25162 1.01235,0.37156 0.002,0 0.004,0.001 0.006,0.002 -0.3533,0.52182 -0.75385,0.99174 -1.17149,1.36065 -0.76052,0.67103 -2.41615,1.53595 -3.4153,1.77456 l -0.6413,0.16433 v 1.35703 1.34204 l 0.71573,-0.10491 c 0.38772,-0.0596 0.9992,-0.20833 1.372,-0.32763 2.5052,-0.83053 4.59785,-2.53306 5.85131,-4.7067 0.1189,-0.20627 0.24032,-0.41135 0.34367,-0.6258 0.24437,-0.51349 0.42391,-0.89277 0.56533,-1.29397 -0.002,-5.2e-4 -0.003,-5.2e-4 -0.005,-10e-4 0.29091,-0.82045 0.3991,-1.73247 0.45008,-3.98944 0.32282,0.0923 0.649,0.18034 0.97772,0.26614 0.0594,0.0155 0.11922,0.0307 0.1788,0.046 0.11232,0.0288 0.22665,0.0556 0.33952,0.0837 -0.50533,-0.13144 -1.00174,-0.27342 -1.49757,-0.41547 0.003,-0.15158 0.014,-0.20143 0.017,-0.36587 0.008,-0.43397 0.0105,-1.21999 0.0165,-1.76062 -0.001,-1.3e-4 -0.002,-2.7e-4 -0.002,-5.3e-4 0.009,-0.94281 0.0179,-1.99555 0.0269,-3.29645 0.0448,-5.35353 0.015,-7.85879 -0.0894,-7.829 -0.0895,0.0299 -1.02896,1.20783 -2.08772,2.59469 -1.90878,2.47542 -1.9386,2.53524 -1.5658,2.63962 0.22367,0.0597 0.52162,0.22339 0.67074,0.35761 0.25625,0.22773 0.28017,0.61725 0.28218,4.55891 0.001,5.3e-4 0.002,1.6e-4 0.003,5.3e-4 0,0.23753 0.005,0.22075 0.005,0.4868 -3e-5,0.9327 -0.0162,1.10503 -0.0202,1.71978 -0.70747,-0.25819 -1.39563,-0.5334 -2.06759,-0.82527 -3.3152,-1.44 -6.21126,-3.2641 -8.53125,-5.46945 -1.40176,-1.32718 -1.65506,-1.49138 -2.46031,-1.49138 -0.80529,0 -1.02904,0.13451 -2.62466,1.62576 -3.60876,3.39998 -8.87286,6.06942 -14.82286,7.53079 -2.38596,0.59653 -4.35457,0.90937 -7.33703,1.19272 -2.41579,0.2237 -2.75842,0.34258 -3.16103,1.17768 -0.22365,0.4772 -0.23876,1.98372 -0.23876,16.86616 0,10.6921 0.06,16.85065 0.16434,17.79013 0.74562,6.69563 4.69733,13.1526 10.21486,16.68685 1.61054,1.04383 14.28597,8.29148 15.01666,8.60462 0.67105,0.26839 1.05867,0.31316 2.78848,0.31316 1.74472,0 2.11748,-0.0448 2.80345,-0.32814 0.76051,-0.31316 13.28661,-7.48601 14.97168,-8.55969 4.53335,-2.9228 8.15698,-7.91853 9.58855,-13.27206 0.73068,-2.72894 0.8201,-4.07058 0.8201,-13.15217 0,-8.39561 1.7e-4,-8.39586 0.34315,-8.70902 0.44738,-0.43244 1.01388,-0.41736 1.43144,0.03 0.32809,0.35789 0.32851,0.3578 0.28369,9.57358 -0.0596,8.90262 -0.0745,9.29039 -0.40253,10.8562 -1.37196,6.62104 -5.01096,12.25793 -10.30482,15.97109 -1.46141,1.01407 -14.7331,8.67863 -15.80679,9.11109 -1.43157,0.58161 -3.22098,0.80526 -4.89117,0.62632 -0.5965,-0.0597 -1.55104,-0.26821 -2.11768,-0.47699 -1.07369,-0.3728 -13.22697,-7.27723 -15.80679,-8.97723 -5.50265,-3.63855 -9.3203,-9.39464 -10.7668,-16.25428 -0.34295,-1.62544 -0.34277,-1.62547 -0.38757,-18.98335 -0.0448,-19.60965 -0.11938,-18.2381 1.13326,-19.5802 0.85,-0.90964 1.74438,-1.2373 3.68299,-1.37151 8.8728,-0.58157 16.53794,-3.60873 21.95109,-8.64907 1.43158,-1.34209 2.26685,-1.76011 3.47475,-1.76011 1.20788,0 2.05783,0.43275 3.42975,1.73014 2.17304,2.0429 4.71224,3.71813 7.55562,5.06222 v -0.61288 -1.32655 l -0.98443,-0.045 c -0.87986,-0.0447 -1.02869,-0.0896 -1.29711,-0.44751 -0.26842,-0.35791 -0.28339,-0.46213 -0.11934,-0.80513 0.20875,-0.47718 7.21769,-9.70822 7.65016,-10.08105 0.19573,-0.17616 0.42841,-0.26368 0.65837,-0.26768 z m -22.82185,9.09661 h 5.3e-4 c 0.23559,0.0102 0.47019,0.10846 0.6594,0.29766 0.11739,0.1174 0.1874,0.23519 0.23098,0.49763 -0.001,0.001 -0.003,0.002 -0.004,0.003 -0.0913,0.0731 -0.18407,0.14494 -0.27646,0.21704 -0.0758,0.0592 -0.1514,0.11874 -0.22789,0.17724 -0.13139,0.10031 -0.26445,0.19894 -0.39791,0.29713 -0.0345,0.0254 -0.0682,0.0512 -0.10285,0.0765 -0.15191,0.11078 -0.3049,0.22048 -0.45939,0.32867 -0.014,0.01 -0.0284,0.0194 -0.0424,0.0294 -0.16564,0.11559 -0.33283,0.22992 -0.50125,0.34263 -0.001,0.001 -0.002,0.001 -0.003,0.002 0.012,-1.29167 0.0669,-1.57813 0.30747,-1.88207 0.20971,-0.26843 0.51359,-0.40014 0.81651,-0.38705 z m 19.58689,21.94182 c 1.30336,0.0237 2.55648,0.53499 3.61013,1.50895 0.507,0.4772 1.04408,1.14771 1.2976,1.66968 0.40267,0.79033 0.44699,0.99938 0.44699,2.35643 0,2.56489 0.59684,1.81906 -10.57249,12.98834 -10.93068,10.94563 -10.3936,10.48361 -12.67518,10.58799 -0.77544,0.0448 -1.43187,-0.0152 -1.83451,-0.14933 -0.34298,-0.10438 -0.92464,-0.37259 -1.26762,-0.58137 -0.35791,-0.20876 -2.93775,-2.68409 -5.74125,-5.50251 -5.96493,-5.97982 -5.93505,-5.93498 -5.93505,-8.32094 0,-1.22279 0.0596,-1.53633 0.40256,-2.26705 0.50702,-1.1035 1.5957,-2.17681 2.72904,-2.74349 0.80526,-0.3877 1.04394,-0.43254 2.31148,-0.43254 2.22192,0 2.56464,0.20865 6.09886,3.72795 2.9228,2.89293 2.9232,2.89311 5.92056,-0.0744 3.17632,-3.17632 3.37034,-3.29615 4.10104,-2.71454 0.2237,0.19386 0.32763,0.44804 0.32763,0.76118 0,0.44738 -0.35761,0.84957 -3.48919,3.98115 -2.9228,2.9228 -3.57926,3.48973 -3.92224,3.48973 -0.3579,0 -0.99872,-0.56706 -3.87678,-3.41532 -2.81839,-2.78858 -3.54949,-3.44438 -4.04159,-3.57857 -1.28246,-0.35791 -2.41596,-0.11938 -3.37034,0.71569 -0.79036,0.67107 -1.16282,1.49104 -1.17771,2.56472 0,1.49121 0.26836,1.83451 5.62186,7.15822 4.08599,4.07104 5.01034,4.90622 5.59192,5.12993 0.8351,0.31313 2.01311,0.25341 2.80344,-0.11938 0.31317,-0.14915 4.51877,-4.26511 10.08105,-9.84229 10.31928,-10.33423 9.90172,-9.85692 9.90172,-11.45255 0,-0.87981 -0.5815,-2.08766 -1.23765,-2.59466 -1.0886,-0.82021 -2.61019,-0.98422 -3.75843,-0.41756 -0.2386,0.1193 -1.69995,1.46121 -3.22098,2.98225 -2.59474,2.56492 -2.81808,2.74386 -3.26544,2.69907 -0.32808,-0.0298 -0.59629,-0.1791 -0.79015,-0.44752 -0.25352,-0.34298 -0.269,-0.46183 -0.11988,-0.84955 0.29824,-0.68599 5.47277,-5.72643 6.35259,-6.17379 0.89054,-0.44831 1.80623,-0.66011 2.69801,-0.64389 z" />
  </g>
</svg>
