<svg width="22" height="22" viewBox="0 0 30 30" fill="none" xmlns="http://www.w3.org/2000/svg">
<path d="M26.25 1.875C26.7473 1.875 27.2242 2.07254 27.5758 2.42417C27.9275 2.77581 28.125 3.25272 28.125 3.75V26.25C28.125 26.7473 27.9275 27.2242 27.5758 27.5758C27.2242 27.9275 26.7473 28.125 26.25 28.125H3.75C3.25272 28.125 2.77581 27.9275 2.42417 27.5758C2.07254 27.2242 1.875 26.7473 1.875 26.25V3.75C1.875 3.25272 2.07254 2.77581 2.42417 2.42417C2.77581 2.07254 3.25272 1.875 3.75 1.875H26.25ZM3.75 0C2.75544 0 1.80161 0.395088 1.09835 1.09835C0.395088 1.80161 0 2.75544 0 3.75V26.25C0 27.2446 0.395088 28.1984 1.09835 28.9016C1.80161 29.6049 2.75544 30 3.75 30H26.25C27.2446 30 28.1984 29.6049 28.9016 28.9016C29.6049 28.1984 30 27.2446 30 26.25V3.75C30 2.75544 29.6049 1.80161 28.9016 1.09835C28.1984 0.395088 27.2446 0 26.25 0H3.75Z" fill="#198754"/>
<path d="M20.5688 9.31875C20.8312 9.05863 21.1854 8.91224 21.5549 8.91122C21.9244 8.9102 22.2794 9.05464 22.5432 9.3133C22.8071 9.57197 22.9585 9.92408 22.9648 10.2935C22.9711 10.6629 22.8317 11.02 22.5769 11.2875L15.0919 20.6438C14.9632 20.7823 14.808 20.8935 14.6354 20.9707C14.4628 21.0479 14.2764 21.0895 14.0873 21.093C13.8983 21.0965 13.7105 21.0618 13.5352 20.9911C13.3598 20.9203 13.2006 20.815 13.0669 20.6812L8.1075 15.72C7.96934 15.5913 7.85852 15.436 7.78166 15.2635C7.7048 15.091 7.66347 14.9048 7.66014 14.716C7.65681 14.5272 7.69154 14.3396 7.76227 14.1645C7.833 13.9894 7.93827 13.8303 8.0718 13.6968C8.20534 13.5633 8.3644 13.458 8.5395 13.3873C8.71461 13.3165 8.90216 13.2818 9.09098 13.2851C9.2798 13.2885 9.46601 13.3298 9.63851 13.4067C9.81101 13.4835 9.96626 13.5943 10.095 13.7325L14.0213 17.6569L20.5331 9.36C20.5447 9.34547 20.5554 9.33169 20.5688 9.31875Z" fill="#198754"/>
</svg>
