<svg width="51.329mm" height="3.7092mm" version="1.1" viewBox="0 0 51.329 3.7092" xmlns="http://www.w3.org/2000/svg"><g transform="translate(-86.972 -69.205)" fill="#fff"><g fill-opacity=".75" stroke-width=".26458"><path d="m88.031 72.909v-0.52916h-0.52916v-0.52917h-0.52917v-1.5875h0.52917v-0.52916h0.52916v-0.52917h2.1167v0.52917h0.52916v0.52916h-1.0583v-0.52916h-1.0583v0.52916h-0.52917v1.5875h0.52917v0.52917h1.0583v-0.52917h1.0583v0.52917h-0.52916v0.52916z"/><path d="m91.735 72.909v-0.52916h-0.52917v-2.6458h0.52917v-0.52917h2.6458v0.52917h0.52916v2.6458h-0.52916v0.52916zm0.52916-0.52916h1.5875v-2.6458h-1.5875z"/><path d="m95.968 72.909v-0.52916h-0.52917v-3.175h1.0583v3.175h1.5875v-3.175h1.0583v3.175h-0.52916v0.52916z"/><path d="m99.672 72.909v-3.7042h3.175v0.52917h0.52916v1.5875h-1.0583v0.52916h0.52917v0.52917h0.52916v0.52916h-1.5875v-0.52916h-0.52916v-0.52917h-0.52917v1.0583zm1.0583-1.5875h1.0583v-0.52917h0.52917v-1.0583h-1.5875z"/></g><path d="m104.96 72.909v-0.52916h-0.52917v-0.52917h1.0583v0.52917h1.5875v-1.0583h-2.1167v-0.52917h-0.52917v-1.0583h0.52917v-0.52917h2.6458v0.52917h0.52916v0.52916h-1.0583v-0.52916h-1.5875v1.0583h2.1167v0.52917h0.52916v1.0583h-0.52916v0.52916z" stroke-width=".26458"/><g fill-opacity=".85" stroke-width=".26458"><path d="m114.49 72.909v-0.52916h-0.52916v-0.52917h-0.52917v-1.5875h0.52917v-0.52916h0.52916v-0.52917h2.1167v0.52917h0.52916v0.52916h-1.0583v-0.52916h-1.0583v0.52916h-0.52917v1.5875h0.52917v0.52917h1.0583v-0.52917h1.0583v0.52917h-0.52916v0.52916z"/><path d="m118.19 72.909v-0.52916h-0.52917v-3.175h1.0583v3.175h1.5875v-3.175h1.0583v3.175h-0.52916v0.52916z"/><path d="m121.9 72.909v-3.7042h3.175v0.52917h0.52916v1.5875h-1.0583v0.52916h0.52917v0.52917h0.52916v0.52916h-1.5875v-0.52916h-0.52916v-0.52917h-0.52917v1.0583zm1.0583-1.5875h1.0583v-0.52917h0.52917v-1.0583h-1.5875z"/><path d="m126.66 72.909v-0.52916h1.0583v-2.6458h-1.0583v-0.52917h3.175v0.52917h-1.0583v2.6458h1.0583v0.52916z"/><path d="m131.95 72.909v-3.175h-1.0583v-0.52917h3.175v0.52917h-1.0583v3.175z"/><path d="m136.18 72.909v-1.5875h-0.52916v-0.52917h-0.52917v-1.5875h1.0583v1.5875h1.0583v-1.5875h1.0583v1.5875h-0.52917v0.52917h-0.52916v1.5875z"/></g><g transform="translate(233.12 -658.25)"><rect x="-124.46" y="727.45" width="3.7042" height=".52916" stop-color="#000000" style="paint-order:stroke markers fill"/><rect x="-124.46" y="730.63" width="3.7042" height=".52916" stop-color="#000000" style="paint-order:stroke markers fill"/><rect x="-124.46" y="729.04" width="3.1754" height=".52674" stop-color="#000000" style="paint-order:stroke markers fill"/></g><rect x="94.375" y="72.38" width=".53456" height=".53417" fill-opacity=".75" stop-color="#000000" style="paint-order:stroke markers fill"/></g></svg>
