<svg width="22" height="22" viewBox="0 0 30 30" fill="none" xmlns="http://www.w3.org/2000/svg">
<path d="M26.25 1.875C26.7473 1.875 27.2242 2.07254 27.5758 2.42417C27.9275 2.77581 28.125 3.25272 28.125 3.75V26.25C28.125 26.7473 27.9275 27.2242 27.5758 27.5758C27.2242 27.9275 26.7473 28.125 26.25 28.125H3.75C3.25272 28.125 2.77581 27.9275 2.42417 27.5758C2.07254 27.2242 1.875 26.7473 1.875 26.25V3.75C1.875 3.25272 2.07254 2.77581 2.42417 2.42417C2.77581 2.07254 3.25272 1.875 3.75 1.875H26.25ZM3.75 0C2.75544 0 1.80161 0.395088 1.09835 1.09835C0.395088 1.80161 0 2.75544 0 3.75V26.25C0 27.2446 0.395088 28.1984 1.09835 28.9016C1.80161 29.6049 2.75544 30 3.75 30H26.25C27.2446 30 28.1984 29.6049 28.9016 28.9016C29.6049 28.1984 30 27.2446 30 26.25V3.75C30 2.75544 29.6049 1.80161 28.9016 1.09835C28.1984 0.395088 27.2446 0 26.25 0H3.75Z" fill="#DC3545"/>
<path d="M8.71125 8.71125C8.79834 8.62394 8.90179 8.55468 9.01569 8.50741C9.12958 8.46015 9.25169 8.43582 9.375 8.43582C9.49831 8.43582 9.62042 8.46015 9.73431 8.50741C9.84821 8.55468 9.95166 8.62394 10.0387 8.71125L15 13.6744L19.9613 8.71125C20.0484 8.62408 20.1519 8.55494 20.2658 8.50777C20.3797 8.4606 20.5017 8.43632 20.625 8.43632C20.7483 8.43632 20.8703 8.4606 20.9842 8.50777C21.0981 8.55494 21.2016 8.62408 21.2887 8.71125C21.3759 8.79842 21.4451 8.90189 21.4922 9.01578C21.5394 9.12967 21.5637 9.25173 21.5637 9.375C21.5637 9.49827 21.5394 9.62033 21.4922 9.73422C21.4451 9.84811 21.3759 9.95159 21.2887 10.0387L16.3256 15L21.2887 19.9613C21.3759 20.0484 21.4451 20.1519 21.4922 20.2658C21.5394 20.3797 21.5637 20.5017 21.5637 20.625C21.5637 20.7483 21.5394 20.8703 21.4922 20.9842C21.4451 21.0981 21.3759 21.2016 21.2887 21.2887C21.2016 21.3759 21.0981 21.4451 20.9842 21.4922C20.8703 21.5394 20.7483 21.5637 20.625 21.5637C20.5017 21.5637 20.3797 21.5394 20.2658 21.4922C20.1519 21.4451 20.0484 21.3759 19.9613 21.2887L15 16.3256L10.0387 21.2887C9.95159 21.3759 9.84811 21.4451 9.73422 21.4922C9.62033 21.5394 9.49827 21.5637 9.375 21.5637C9.25173 21.5637 9.12967 21.5394 9.01578 21.4922C8.90189 21.4451 8.79842 21.3759 8.71125 21.2887C8.62408 21.2016 8.55494 21.0981 8.50777 20.9842C8.4606 20.8703 8.43632 20.7483 8.43632 20.625C8.43632 20.5017 8.4606 20.3797 8.50777 20.2658C8.55494 20.1519 8.62408 20.0484 8.71125 19.9613L13.6744 15L8.71125 10.0387C8.62394 9.95166 8.55468 9.84821 8.50741 9.73431C8.46015 9.62042 8.43582 9.49831 8.43582 9.375C8.43582 9.25169 8.46015 9.12958 8.50741 9.01569C8.55468 8.90179 8.62394 8.79834 8.71125 8.71125Z" fill="#DC3545"/>
</svg>
