<svg width="22" height="22" fill="none" version="1.1" viewBox="0 0 30 30" xmlns="http://www.w3.org/2000/svg"><path d="m26.25 1.875c0.4973 0 0.9742 0.19754 1.3258 0.54917 0.3517 0.35164 0.5492 0.82855 0.5492 1.3258v22.5c0 0.4973-0.1975 0.9742-0.5492 1.3258-0.3516 0.3517-0.8285 0.5492-1.3258 0.5492h-22.5c-0.49728 0-0.97419-0.1975-1.3258-0.5492-0.35163-0.3516-0.54917-0.8285-0.54917-1.3258v-22.5c0-0.49728 0.19754-0.97419 0.54917-1.3258 0.35164-0.35163 0.82855-0.54917 1.3258-0.54917h22.5zm-22.5-1.875c-0.99456 0-1.9484 0.39509-2.6516 1.0984-0.70326 0.70326-1.0984 1.6571-1.0984 2.6516v22.5c0 0.9946 0.39509 1.9484 1.0984 2.6516 0.70326 0.7033 1.6571 1.0984 2.6516 1.0984h22.5c0.9946 0 1.9484-0.3951 2.6516-1.0984 0.7033-0.7032 1.0984-1.657 1.0984-2.6516v-22.5c0-0.99456-0.3951-1.9484-1.0984-2.6516-0.7032-0.70326-1.657-1.0984-2.6516-1.0984h-22.5z" fill="#DC3545"/></svg>
